<svg id="Capa_1" enable-background="new 0 0 512.002 512.002" height="512" viewBox="0 0 512.002 512.002" width="512" xmlns="http://www.w3.org/2000/svg"><g><g><path d="m391.501 393.549c-8.613-35.987-40.782-61.376-77.788-61.376h-99.423-99.423c-37.006 0-69.174 25.389-77.788 61.376l-28.853 110.951h412.129z" fill="#eaf6ff"/><path d="m420.357 504.5h-24.4l-28.86-110.95c-8.61-35.99-40.78-61.38-77.79-61.38h24.41c37 0 69.17 25.39 77.78 61.38z" fill="#c8effe"/><path d="m369.327 354.68-17.39 18.68c-7.13 7.8-11.08 17.98-11.08 28.54v102.6h-253.18v-102.6c0-10.56-3.96-20.74-11.09-28.54l-17.2-18.8c14.52-13.99 34.2-22.39 55.48-22.39h198.85c21.34 0 41.08 8.45 55.61 22.51z" fill="#766e6e"/><path d="m369.327 354.68-12.94 13.9c-14.44-22.21-39.41-36.41-67.08-36.41h24.41c21.34 0 41.08 8.45 55.61 22.51z" fill="#5b5555"/><path d="m114.868 332.172 99.42 138.474 99.426-138.474z" fill="#eaf6ff"/><path d="m313.717 332.17-99.43 138.48-11.45-15.95 87.98-122.53z" fill="#c8effe"/><path d="m474.638 504.5h-139.84c-16.093 0-29.139-13.046-29.139-29.139h198.119c0 16.093-13.047 29.139-29.14 29.139z" fill="#b9acac"/><path d="m503.777 475.36c0 8.04-3.26 15.33-8.54 20.6-5.27 5.28-12.56 8.54-20.6 8.54h-22.71c8.05 0 15.33-3.26 20.6-8.54 5.28-5.27 8.54-12.56 8.54-20.6z" fill="#9e9797"/><path d="m365.758 282.19h77.92v36.84h-77.92z" fill="#eaf6ff"/><path d="m421.878 282.19h21.8v36.84h-21.8z" fill="#c8effe"/><path d="m443.678 319.03v28.76c0 21.52-17.44 38.96-38.96 38.96s-38.96-17.44-38.96-38.96v-28.76z" fill="#fd3581"/><path d="m443.678 319.03v28.76c0 21.52-17.44 38.96-38.96 38.96-3.78 0-7.44-.54-10.9-1.55 16.21-4.71 28.06-19.67 28.06-37.41v-28.76z" fill="#fe0364"/><path d="m416.915 444.371h-24.396c-17.115 0-30.99 13.875-30.99 30.99h86.375c.001-17.116-13.874-30.99-30.989-30.99z" fill="#eaf6ff"/><path d="m447.906 475.36h-26.03c0-8.56-3.47-16.3-9.07-21.91-5.43-5.43-12.86-8.85-21.09-9.07.27-.01.53-.01.8-.01h24.4c8.55 0 16.3 3.47 21.91 9.08s9.08 13.35 9.08 21.91z" fill="#c8effe"/><path d="m253.022 278.367h-77.468v53.805l14.945 15.296c13.049 13.355 34.532 13.354 47.581-.002l14.942-15.294z" fill="#ffdfcf"/><path d="m253.027 278.37v53.8l-14.95 15.3c-9.59 9.82-23.76 12.42-35.78 7.77 4.32-1.65 8.35-4.25 11.8-7.77l14.94-15.3v-53.8z" fill="#ffcebf"/><path d="m166.66 320.657 47.631 36.827-47.631 36.826c-5.568 4.305-12.958-.412-12.958-8.272v-57.11c0-7.859 7.39-12.576 12.958-8.271z" fill="#fd3581"/><path d="m214.287 357.48-47.63 36.83c-5.57 4.31-12.96-.41-12.96-8.27v-.6l36.16-27.96-36.16-27.95v-.6c0-7.86 7.39-12.58 12.96-8.27z" fill="#fe0364"/><path d="m261.922 320.657-47.631 36.827 47.631 36.827c5.568 4.305 12.958-.412 12.958-8.272v-57.11c0-7.86-7.39-12.577-12.958-8.272z" fill="#fd3581"/><path d="m274.877 328.93v57.11c0 7.86-7.39 12.58-12.96 8.27l-9.34-7.22c.03-.34.05-.69.05-1.05v-57.11c0-.36-.02-.71-.05-1.05l9.34-7.22c5.57-4.31 12.96.41 12.96 8.27z" fill="#fe0364"/><path d="m88.831 202.184h22.973l9.371-36.566-9.371-36.566h-22.973c-13.963 0-25.283 11.32-25.283 25.283v22.567c0 13.962 11.32 25.282 25.283 25.282z" fill="#ffdfcf"/><path d="m121.177 165.62-9.37 36.56h-22.98v-73.13h22.98z" fill="#ffcebf"/><path d="m339.793 202.184h-22.973l-13.194-36.566 13.194-36.566h22.973c13.963 0 25.283 11.32 25.283 25.283v22.567c0 13.962-11.319 25.282-25.283 25.282z" fill="#ffdfcf"/><path d="m365.077 154.33v22.57c0 13.96-11.32 25.28-25.28 25.28h-20.28c13.97 0 25.29-11.32 25.29-25.28v-22.57c0-13.96-11.32-25.28-25.29-25.28h20.28c13.96 0 25.28 11.32 25.28 25.28z" fill="#ffcebf"/><path d="m247.333 288.354h-66.042c-38.376 0-69.487-31.11-69.487-69.487v-118.179l102.508-26.212 102.508 26.212v118.179c0 38.376-31.11 69.487-69.487 69.487z" fill="#ffdfcf"/><path d="m316.817 100.69v118.18c0 38.37-31.11 69.48-69.48 69.48h-22.98c38.38 0 69.49-31.11 69.49-69.48v-124.05z" fill="#ffcebf"/><g><path d="m214.312 211.891h-.048c-8.134 0-14.728-6.594-14.728-14.728v-22.814c0-8.134 6.594-14.728 14.728-14.728h.048c8.134 0 14.728 6.594 14.728 14.728v22.814c.001 8.134-6.594 14.728-14.728 14.728z" fill="#ffcebf"/></g><path d="m258.195 7.5h-87.809c-45.042 0-81.555 37.345-81.555 83.412v9.775 28.362h29.21c11.166.089 21.258-7.236 25.549-17.537 2.706-6.497 8.81-10.825 15.715-10.825h110.018c6.866 0 12.882 4.348 15.576 10.808 4.211 10.097 14.164 17.535 25.591 17.555h29.209v-28.362h.052v-9.775c-.001-46.068-36.514-83.413-81.556-83.413z" fill="#ffd15b"/><path d="m339.747 90.91v9.78h-.05v28.36h-22.93v-28.36h.05v-9.78c0-46.06-36.51-83.41-81.55-83.41h22.93c45.04 0 81.55 37.35 81.55 83.41z" fill="#ffc344"/></g><g><path d="m214.264 219.391h.048c12.257 0 22.229-9.972 22.229-22.228v-22.814c0-12.256-9.972-22.228-22.276-22.228-12.256 0-22.228 9.972-22.228 22.228v22.814c-.001 12.256 9.971 22.228 22.227 22.228zm-7.228-45.042c0-3.985 3.243-7.228 7.276-7.228 3.986 0 7.229 3.243 7.229 7.228v22.814c0 3.985-3.243 7.228-7.229 7.228h-.048c-3.985 0-7.228-3.243-7.228-7.228z"/><path d="m214.288 254.974c7.766 0 15.257-3.265 20.552-8.959 2.821-3.033 2.648-7.779-.385-10.6s-7.779-2.649-10.6.385c-2.503 2.691-5.901 4.174-9.568 4.174s-7.064-1.482-9.567-4.174c-2.821-3.033-7.567-3.205-10.6-.385-3.033 2.821-3.206 7.566-.385 10.6 5.296 5.693 12.787 8.959 20.553 8.959z"/><ellipse cx="214.291" cy="394.798" rx="8.045" ry="8.045" transform="matrix(.973 -.23 .23 .973 -84.974 59.795)"/><ellipse cx="214.291" cy="419.77" rx="8.045" ry="8.045" transform="matrix(.707 -.707 .707 .707 -234.058 274.474)"/><path d="m503.777 467.86h-49.111c-3.5-17.645-19.094-30.99-37.751-30.99h-4.698v-43.231c22.063-3.597 38.959-22.781 38.959-45.845v-65.604c0-4.142-3.358-7.5-7.5-7.5h-14.101c-4.142 0-7.5 3.358-7.5 7.5s3.358 7.5 7.5 7.5h6.601v21.835h-62.919v-21.835h21.065c4.142 0 7.5-3.358 7.5-7.5s-3.358-7.5-7.5-7.5h-28.565c-4.142 0-7.5 3.358-7.5 7.5v54.679c-12.475-7.54-29.222-12.233-44.545-12.197h-31.808c-1.146-5.114-4.335-9.377-8.896-11.616-4.05-1.987-8.514-2.031-12.487-.244v-18.112c36.186-6.276 63.798-37.881 63.798-75.833v-9.184h15.473c18.077 0 32.783-14.706 32.783-32.783v-22.567c0-15.529-10.857-28.562-25.377-31.929-.03-7.147.047-24.612.052-31.492 0-16.735-4.494-33.095-12.995-47.311-2.126-3.556-6.73-4.713-10.287-2.588-3.555 2.126-4.713 6.731-2.587 10.286 7.111 11.89 10.869 25.588 10.869 39.613-.005 6.361-.082 24.082-.052 30.637h-21.696c-7.952-.014-15.459-5.215-18.683-12.942-3.907-9.368-12.738-15.42-22.498-15.42h-110.017c-9.845 0-18.731 6.061-22.638 15.442-3.245 7.791-10.682 12.998-18.625 12.92h-21.71v-30.636c0-41.859 33.221-75.913 74.055-75.913h87.809c15.148 0 29.71 4.654 42.111 13.46 3.376 2.397 8.06 1.604 10.458-1.773s1.604-8.06-1.773-10.458c-14.953-10.617-32.518-16.229-50.796-16.229h-87.809c-49.105 0-89.055 40.783-89.055 90.913v31.514c-14.473 3.402-25.283 16.411-25.283 31.907v22.567c0 18.077 14.706 32.783 32.783 32.783h15.473v9.184c0 37.936 27.588 69.529 63.75 75.824v18.119c-3.971-1.784-8.433-1.741-12.481.246-4.561 2.239-7.75 6.503-8.896 11.616h-31.808c-.043 0-.057.002-.256.005-40.5.116-75.342 27.648-84.807 67.052l-28.838 110.882c-1.042 4.009 1.362 8.104 5.371 9.146.633.165 1.268.243 1.893.243 3.333 0 6.375-2.238 7.253-5.614l28.854-110.952c.012-.047.024-.095.035-.142 2.694-11.255 7.886-21.343 14.907-29.738l11.776 12.87c5.88 6.427 9.118 14.763 9.118 23.473v102.602c0 4.142 3.358 7.5 7.5 7.5s7.5-3.358 7.5-7.5v-102.601c0-12.467-4.635-24.399-13.051-33.598l-12.069-13.19c11.48-9.019 25.698-14.548 41.041-15.332l35.335 49.214c.864 5.688 4.198 10.491 9.141 12.917 4.223 2.007 10.236 2.362 15.674-1.667l43.043-33.28 41.931 32.42-41.934 58.403-27.671-38.542c-2.416-3.364-7.102-4.133-10.466-1.718-3.365 2.416-4.134 7.102-1.718 10.466l32.356 45.066v31.442c0 4.142 3.358 7.5 7.5 7.5s7.5-3.358 7.5-7.5v-31.441l51.027-71.067c.064-.03.13-.051.194-.082 4.944-2.427 8.278-7.231 9.141-12.919l35.334-49.211c14.951.78 29.317 6.172 41.088 15.446l-12.168 13.075c-8.417 9.198-13.051 21.13-13.051 33.598v65.961h-27.694c-4.142 0-7.5 3.358-7.5 7.5 0 20.203 16.437 36.64 36.64 36.64h139.84c20.203 0 36.639-16.437 36.639-36.64 0-4.142-3.358-7.5-7.5-7.5zm-64.599 0h-68.92c3.137-9.286 11.931-15.99 22.262-15.99h24.396c10.331.001 19.126 6.705 22.262 15.99zm-3.001-141.335v21.269c0 17.347-14.113 31.459-31.459 31.459s-31.459-14.113-31.459-31.459v-21.269zm-153.797 13.147h16.715l-16.715 23.28zm-68.089 8.331-31.236-24.151v-27.998h62.468v28.002zm143.285-193.67v22.567c0 9.805-7.978 17.783-17.783 17.783h-15.473v-10.922c0-9.881 10.908-11.823 12.189-12.017 4.08-.577 6.935-4.34 6.383-8.43-.554-4.105-4.331-6.983-8.436-6.429-2.835.383-6.493 1.404-10.136 3.243v-23.578h15.473c9.806.001 17.783 7.978 17.783 17.783zm-268.745 40.351c-9.806 0-17.783-7.978-17.783-17.783v-22.567c0-9.805 7.977-17.783 17.783-17.783h15.473v23.578c-3.643-1.839-7.301-2.86-10.136-3.243-4.098-.552-7.908 2.32-8.462 6.425s2.297 7.878 6.402 8.433c1.248.188 12.196 2.118 12.196 12.018v10.922zm30.473 24.183v-82.359c13.393-.445 25.822-9.177 31.208-22.112 1.571-3.772 5.022-6.209 8.792-6.209h110.018c3.688 0 7.084 2.432 8.654 6.195 5.365 12.862 17.855 21.614 31.344 22.119v82.366c0 34.18-27.807 61.987-61.987 61.987h-66.042c-34.18 0-61.987-27.807-61.987-61.987zm26.898 144.087-16.716-23.282h16.716zm15.87 25.423c-.001 0-.001.001-.002.002-.322-.236-.865-.973-.867-2.332 0-.003 0-.007 0-.01v-57.108c0-1.364.545-2.104.868-2.34.002.001.004.001.003.002l39.957 30.893zm104.437-61.787c0-.002.002-.002.003-.002.322.236.868.976.868 2.34v57.11c0 1.364-.545 2.104-.868 2.34-.001 0-.002-.001-.003-.002l-39.957-30.893zm81.844 75.309c0-8.71 3.238-17.046 9.075-23.425l7.025-7.548c4.217 7.311 10.36 13.373 17.74 17.483.781 2.258 1.459 4.564 2.015 6.886.011.047.023.095.035.142l10.775 41.435h-2.498c-18.657 0-34.251 13.345-37.751 30.99h-6.417v-65.963zm126.285 95.101h-139.84c-9.296 0-17.243-5.893-20.3-14.14h180.439c-3.056 8.247-11.002 14.14-20.299 14.14z"/></g></g></svg>